HIERARCHY
ROOT Hips
{
  OFFSET 53.2191 95.6354 31.114
  CHANNELS 6 Xposition Yposition Zposition Zrotation Xrotation Yrotation
  JOINT spine
  {
    OFFSET 0 7.96568 0.458067
    CHANNELS 3 Zrotation Xrotation Yrotation
    JOINT spine1
    {
      OFFSET 0 10.2431 0
      CHANNELS 3 Zrotation Xrotation Yrotation
      JOINT spine2
      {
        OFFSET 0 9.81475 0
        CHANNELS 3 Zrotation Xrotation Yrotation
        JOINT Neck
        {
          OFFSET 0 25.1986 1.20138
          CHANNELS 3 Zrotation Xrotation Yrotation
          JOINT Head
          {
            OFFSET 0 7.61315 0
            CHANNELS 3 Zrotation Xrotation Yrotation
            End Site
            {
              OFFSET 0 18.4281 -6.07733
            }
          }
        }
        JOINT RightShoulder
        {
          OFFSET -4.1327 10.5992 -0.575451
          CHANNELS 3 Zrotation Xrotation Yrotation
          JOINT RightArm
          {
            OFFSET 0 13.9018 0
            CHANNELS 3 Zrotation Xrotation Yrotation
            JOINT RightArmRoll
            {
              OFFSET 0 7.01788 0
              CHANNELS 3 Zrotation Xrotation Yrotation
              JOINT RightForeArm
              {
                OFFSET 0 20.4406 0
                CHANNELS 3 Zrotation Xrotation Yrotation
                JOINT RightForeArmRoll
                {
                  OFFSET 0 7.87515 0
                  CHANNELS 3 Zrotation Xrotation Yrotation
                  JOINT RightHand
                  {
                    OFFSET 0 15.8037 0
                    CHANNELS 3 Zrotation Xrotation Yrotation
                    End Site
                    {
                      OFFSET 0 0 0
                    }
                  }
                }
              }
            }
          }
        }
        JOINT LeftShoulder
        {
          OFFSET 4.1327 10.5992 -0.575451
          CHANNELS 3 Zrotation Xrotation Yrotation
          JOINT LeftArm
          {
            OFFSET 0 13.9018 0
            CHANNELS 3 Zrotation Xrotation Yrotation
            JOINT LeftArmRoll
            {
              OFFSET 0 7.01788 0
              CHANNELS 3 Zrotation Xrotation Yrotation
              JOINT LeftForeArm
              {
                OFFSET 0 20.4406 0
                CHANNELS 3 Zrotation Xrotation Yrotation
                JOINT LeftForeArmRoll
                {
                  OFFSET 0 7.87515 0
                  CHANNELS 3 Zrotation Xrotation Yrotation
                  JOINT LeftHand
                  {
                    OFFSET 0 15.8037 0
                    CHANNELS 3 Zrotation Xrotation Yrotation
                    End Site
                    {
                      OFFSET 0 0 0
                    }
                  }
                }
              }
            }
          }
        }
      }
    }
  }
  JOINT RightUpLeg
  {
    OFFSET -7.06048 -1.2947 -1.08609
    CHANNELS 3 Zrotation Xrotation Yrotation
    JOINT RightUpLegRoll
    {
      OFFSET 0 18.5308 0
      CHANNELS 3 Zrotation Xrotation Yrotation
      JOINT RightLeg
      {
        OFFSET 0 -22.9476 0
        CHANNELS 3 Zrotation Xrotation Yrotation
        JOINT RightLegRoll
        {
          OFFSET 0 23.0226 0
          CHANNELS 3 Zrotation Xrotation Yrotation
          JOINT RightFoot
          {
            OFFSET 0 19.1625 0
            CHANNELS 3 Zrotation Xrotation Yrotation
            JOINT RightToeBase
            {
              OFFSET 0 16.0188 0
              CHANNELS 3 Zrotation Xrotation Yrotation
              End Site
              {
                OFFSET 0.00678979 7.75782 -0.894207
              }
            }
          }
        }
      }
    }
  }
  JOINT LeftUpLeg
  {
    OFFSET 7.06048 -1.2947 -1.08609
    CHANNELS 3 Zrotation Xrotation Yrotation
    JOINT LeftUpLegRoll
    {
      OFFSET 0 18.5309 0
      CHANNELS 3 Zrotation Xrotation Yrotation
      JOINT LeftLeg
      {
        OFFSET 0 22.9475 0
        CHANNELS 3 Zrotation Xrotation Yrotation
        JOINT LeftLegRoll
        {
          OFFSET 0 23.2355 0
          CHANNELS 3 Zrotation Xrotation Yrotation
          JOINT LeftFoot
          {
            OFFSET 0 18.9496 0
            CHANNELS 3 Zrotation Xrotation Yrotation
            JOINT LeftToeBase
            {
              OFFSET 0 16.0188 0
              CHANNELS 3 Zrotation Xrotation Yrotation
              End Site
              {
                OFFSET -0.0304289 7.75782 -0.894206
              }
            }
          }
        }
      }
    }
  }
}
MOTION
Frames: 4
Frame Time: 0.00208333
51.0861 56.5716 -12.8135 2.4587 -2.76875 7.97511 -0.0746132 0.596447 -0.236495 -0.144772 5.19603 -0.46049 -0.139406 6.84108 -0.458633 -3.20961 2.30948 -2.37659 4.64126 8.98088 -2.89397 62.7275 -1.83231 -1.53468 118.282 35.7993 -14.9749 7.62925e-007 -1.44737e-006 -1.51233e-006 14.9409 36.528 -6.51141 -6.52574e-006 -5.85831e-006 -3 8.02885 -4.95105 0.697513 -68.5909 -3.47641 2.92773 -117.915 39.9039 17.1782 -4.37326e-015 -6.36111e-015 -3.18055e-015 -14.7972 31.4205 4.94033 7.18665e-007 4.19146e-007 3.00632 -8.02886 -4.95143 -0.697709 115.847 76.6944 61.0203 180 1.52567e-005 179.053 -142.569 81.1796 143.365 1.77578e-007 -3.04992e-006 1.28806 -9.27387 61.7573 16.2296 8.13658 25.234 -3.48588 -147.918 81.7776 -34.0381 4.54188e-006 -4.6773e-006 -1.38184 17.0222 -83.093 18.0563 -6.14466e-006 -5.41588e-006 -1.90499 13.5316 62.0461 -15.8116 -8.13654 25.2333 3.48684 
51.0835 56.5726 -12.8179 2.45615 -2.74373 7.97379 -0.0753237 0.592317 -0.236341 -0.145739 5.18778 -0.460285 -0.140383 6.83282 -0.458414 -3.21958 2.30377 -2.38049 4.64817 9.03431 -2.90181 62.7273 -1.83453 -1.53593 118.281 35.7858 -14.9813 7.62925e-007 -1.44737e-006 -1.51233e-006 14.9487 36.5433 -6.5164 -6.52574e-006 -5.85831e-006 -3 8.02885 -4.95105 0.697513 -68.5931 -3.48283 2.93115 -117.906 39.8948 17.1881 1.98785e-016 3.18055e-015 -0 -14.811 31.4431 4.94868 7.18664e-007 4.19146e-007 3.00632 -8.02886 -4.95143 -0.697709 115.752 76.7081 61.1207 180 1.52567e-005 179.053 -142.606 81.178 143.398 1.77578e-007 -3.04992e-006 1.28966 -9.28184 61.7626 16.231 8.13658 25.234 -3.48588 -147.852 81.7991 -34.1006 4.54188e-006 -4.6773e-006 -1.38161 17.009 -83.0859 18.0426 -6.14466e-006 -5.41587e-006 -1.90446 13.5237 62.039 -15.8103 -8.13654 25.2333 3.48684 
51.0856 56.5704 -12.8475 2.45353 -2.71944 7.97247 -0.0760352 0.588314 -0.236175 -0.146675 5.17977 -0.460067 -0.14133 6.82481 -0.458183 -3.22888 2.29757 -2.38443 4.65464 9.08769 -2.90957 62.7276 -1.83679 -1.53725 118.279 35.7728 -14.9874 7.62925e-007 -1.44737e-006 -1.51233e-006 14.9566 36.5582 -6.52135 -6.52574e-006 -5.85831e-006 -3 8.02885 -4.95105 0.697513 -68.5944 -3.48931 2.93454 -117.9 39.8862 17.1983 1.59028e-015 -3.18055e-015 7.95139e-016 -14.8242 31.4645 4.95658 7.18665e-007 4.19146e-007 3.00632 -8.02886 -4.95143 -0.697709 115.659 76.7212 61.219 180 1.52567e-005 179.053 -142.645 81.1763 143.433 1.77578e-007 -3.04992e-006 1.29133 -9.29023 61.768 16.2324 8.13658 25.234 -3.48588 -147.788 81.82 -34.1609 4.54188e-006 -4.6773e-006 -1.38141 16.9959 -83.0786 18.0288 -6.14466e-006 -5.41587e-006 -1.90394 13.5158 62.0319 -15.809 -8.13654 25.2333 3.48684 
51.0847 56.5704 -12.841 2.45085 -2.69564 7.97116 -0.0767474 0.584401 -0.236002 -0.147591 5.17194 -0.459838 -0.142256 6.81699 -0.457941 -3.23771 2.29102 -2.38841 4.66079 9.14103 -2.91726 62.7283 -1.83907 -1.53863 118.277 35.76 -14.9934 7.62925e-007 -1.44737e-006 -1.51233e-006 14.9645 36.5729 -6.52626 -6.52574e-006 -5.85831e-006 -3 8.02885 -4.95105 0.697513 -68.5951 -3.49585 2.93791 -117.894 39.8777 17.2088 -1.76918e-014 6.36111e-015 -1.11319e-014 -14.837 31.485 4.96417 7.18665e-007 4.19146e-007 3.00632 -8.02886 -4.95143 -0.697709 115.567 76.7339 61.3158 180 1.52567e-005 179.053 -142.686 81.1746 143.469 1.77578e-007 -3.04992e-006 1.29305 -9.29892 61.7734 16.2338 8.13658 25.234 -3.48588 -147.726 81.8404 -34.2197 4.54188e-006 -4.6773e-006 -1.38124 16.9829 -83.0711 18.0151 -6.14466e-006 -5.41587e-006 -1.90343 13.5081 62.0249 -15.8077 -8.13654 25.2333 3.48684 
